<?xml version="1.0" standalone="no"?>
<!DOCTYPE svg PUBLIC "-//W3C//DTD SVG 20010904//EN"
 "http://www.w3.org/TR/2001/REC-SVG-20010904/DTD/svg10.dtd">
<svg version="1.0" xmlns="http://www.w3.org/2000/svg"
 width="260.000000pt" height="260.000000pt" viewBox="0 0 260.000000 260.000000"
 preserveAspectRatio="xMidYMid meet">
<metadata>
Created by potrace 1.11, written by Peter Selinger 2001-2013
</metadata>
<g transform="translate(0.000000,260.000000) scale(0.100000,-0.100000)"
fill="#000000" stroke="none">
<path d="M777 2584 c-1 -1 -27 -4 -57 -7 -301 -33 -556 -240 -662 -537 -71
-201 -46 -473 59 -642 13 -21 23 -41 23 -44 0 -4 16 -28 36 -53 152 -191 368
-304 602 -314 126 -6 334 35 376 74 19 18 36 8 100 -58 146 -154 156 -166 145
-180 -13 -14 -7 -25 46 -79 16 -17 80 -85 141 -150 62 -66 135 -144 164 -174
152 -162 274 -292 327 -347 l58 -62 75 70 c41 39 107 100 145 136 205 192 215
203 197 222 -30 31 -316 334 -384 406 -36 39 -87 93 -113 120 -26 28 -92 99
-148 158 -57 62 -103 103 -107 97 -6 -10 -46 28 -152 141 -18 20 -48 52 -66
71 -33 35 -33 35 -18 74 35 92 47 157 48 274 1 137 -24 245 -82 359 -102 202
-307 372 -505 417 -80 18 -238 36 -248 28z"/>
</g>
</svg>
